<?xml version="1.0" standalone="no"?>
<!DOCTYPE svg PUBLIC "-//W3C//DTD SVG 20010904//EN"
 "http://www.w3.org/TR/2001/REC-SVG-20010904/DTD/svg10.dtd">
<svg version="1.0" xmlns="http://www.w3.org/2000/svg"
 width="700.000000pt" height="700.000000pt" viewBox="0 0 700.000000 700.000000"
 preserveAspectRatio="xMidYMid meet">
<metadata>
Created by potrace 1.11, written by Peter Selinger 2001-2013
</metadata>
<g transform="translate(0.000000,700.000000) scale(0.100000,-0.100000)"
fill="#000000" stroke="none">
<path d="M1380 4879 c-183 -28 -347 -168 -408 -347 -24 -71 -27 -219 -6 -289
53 -176 193 -316 364 -362 91 -24 217 -17 307 17 233 89 371 337 320 578 -57
269 -308 444 -577 403z m133 -461 c24 -29 21 -65 -8 -94 -52 -52 -138 6 -113
77 17 50 85 60 121 17z"/>
<path d="M3395 4873 c-98 -20 -179 -65 -255 -142 -132 -133 -179 -310 -130
-488 34 -122 88 -201 193 -279 92 -69 183 -98 304 -97 230 2 435 167 489 392
12 49 13 192 2 231 -28 102 -68 170 -139 243 -125 125 -289 175 -464 140z
m149 -444 c36 -29 36 -80 -1 -109 -47 -37 -113 -4 -113 56 0 35 37 74 70 74
10 0 29 -9 44 -21z"/>
<path d="M5443 4874 c-141 -26 -287 -134 -351 -260 -145 -287 -12 -616 292
-722 217 -75 471 19 595 221 96 156 92 379 -8 536 -64 99 -191 194 -291 217
-19 4 -42 9 -50 11 -37 9 -130 8 -187 -3z m131 -436 c47 -21 51 -78 9 -116
-30 -27 -68 -23 -95 10 -33 38 -18 93 32 111 23 8 27 8 54 -5z"/>
<path d="M1376 3128 c-174 -25 -333 -156 -397 -327 -12 -32 -23 -92 -26 -142
-16 -245 132 -455 371 -526 74 -23 206 -20 287 6 73 23 165 80 216 133 147
154 181 394 83 589 -96 189 -316 299 -534 267z m135 -454 c27 -24 24 -70 -6
-99 -28 -29 -36 -30 -80 -9 -47 22 -53 68 -14 106 31 32 67 32 100 2z"/>
<path d="M3410 3126 c-251 -44 -438 -284 -417 -534 3 -37 8 -74 10 -82 45
-189 213 -351 399 -386 199 -37 411 52 520 218 247 376 -70 861 -512 784z
m140 -451 c25 -23 26 -76 3 -98 -51 -45 -123 -17 -123 48 0 62 73 93 120 50z"/>
<path d="M5470 3130 c-112 -15 -228 -76 -306 -163 -182 -203 -173 -513 21
-703 198 -194 499 -199 702 -10 110 102 161 221 161 373 0 309 -269 543 -578
503z m117 -452 c29 -33 33 -51 16 -86 -22 -46 -71 -52 -115 -14 -33 28 -17 95
25 112 36 14 52 11 74 -12z"/>
</g>
</svg>
